Coordinates
version=1
nRows=17
nColumns=38
inDegrees=no

Units are S.I. units (second, meters, Newtons, ...)
If the header above contains a line with 'inDegrees', this indicates whether rotational values are in degrees (yes) or radians (no).

endheader
time	pelvis_tilt	pelvis_list	pelvis_rotation	pelvis_tx	pelvis_ty	pelvis_tz	hip_flexion_r	hip_adduction_r	hip_rotation_r	knee_angle_r	ankle_angle_r	subtalar_angle_r	mtp_angle_r	hip_flexion_l	hip_adduction_l	hip_rotation_l	knee_angle_l	ankle_angle_l	subtalar_angle_l	mtp_angle_l	lumbar_extension	lumbar_bending	lumbar_rotation	arm_flex_r	arm_add_r	arm_rot_r	elbow_flex_r	pro_sup_r	wrist_flex_r	wrist_dev_r	arm_flex_l	arm_add_l	arm_rot_l	elbow_flex_l	pro_sup_l	wrist_flex_l	wrist_dev_l
1.07	-1.335	1.3226	-0.351744	0.822412	0.442157	0.92538	0.408123	0.25884	-0.250042	0.343416	0.149052	0	0	-0.256825	-0.312748	-0.32656	0.801884	0.256095	0	0	-0.176393	0.34375	0.067375	0.359275	-0.488645	0.212676	1.10001	0.910732	0	0	0.267553	-0.303504	0.0920071	1.0433	0.821606	0	0
1.08	-1.33522	1.31981	-0.354969	0.820729	0.430083	0.926129	0.417765	0.256585	-0.252011	0.394823	0.153853	0	0	-0.225307	-0.320381	-0.300275	0.877083	0.213416	0	0	-0.183404	0.348192	0.0720176	0.368596	-0.492298	0.223729	1.09726	0.905182	0	0	0.270941	-0.307317	0.0973744	1.0444	0.825104	0	0
1.09	-1.31632	1.31839	-0.374567	0.818941	0.418008	0.926987	0.416623	0.252766	-0.252819	0.429804	0.143885	0	0	-0.197712	-0.323381	-0.27181	0.946441	0.172571	0	0	-0.193713	0.348286	0.0756208	0.373659	-0.494796	0.228488	1.09893	0.898273	0	0	0.276456	-0.314267	0.108275	1.04572	0.823221	0	0
1.1	-1.28631	1.31773	-0.404819	0.816764	0.406171	0.928021	0.406925	0.249125	-0.253966	0.449222	0.122545	0	0	-0.173703	-0.323454	-0.245295	1.00893	0.142462	0	0	-0.206411	0.344891	0.0805668	0.374924	-0.495739	0.226593	1.10504	0.89496	0	0	0.28321	-0.322144	0.121121	1.04787	0.813575	0	0
1.11	-1.24908	1.31857	-0.442362	0.814414	0.394467	0.929237	0.392247	0.244426	-0.254852	0.46042	0.0968727	0	0	-0.152431	-0.319932	-0.221551	1.06474	0.13365	0	0	-0.219371	0.338086	0.0856506	0.374273	-0.494815	0.221104	1.11217	0.895375	0	0	0.289373	-0.329243	0.13179	1.05079	0.80051	0	0
1.12	-1.20274	1.32066	-0.488068	0.812163	0.382759	0.930706	0.373809	0.237388	-0.256772	0.467514	0.0667065	0	0	-0.133702	-0.313058	-0.200611	1.11389	0.143551	0	0	-0.232068	0.328281	0.0891257	0.37271	-0.492192	0.214102	1.11755	0.89802	0	0	0.294599	-0.334844	0.13866	1.05362	0.788995	0	0
1.13	-1.14575	1.32311	-0.543146	0.810064	0.371028	0.932507	0.352388	0.2286	-0.25747	0.471995	0.0307137	0	0	-0.118002	-0.303592	-0.181914	1.15435	0.160026	0	0	-0.245264	0.316165	0.0907549	0.370505	-0.4888	0.207153	1.12132	0.899378	0	0	0.299161	-0.33885	0.141346	1.05571	0.783628	0	0
1.14	-1.08574	1.32541	-0.601096	0.808023	0.359372	0.934521	0.332169	0.220352	-0.253384	0.478775	0.00213384	0	0	-0.103591	-0.292941	-0.165935	1.18587	0.175628	0	0	-0.258204	0.303174	0.091736	0.3681	-0.4856	0.201413	1.12438	0.899562	0	0	0.302721	-0.341762	0.141115	1.05784	0.781042	0	0
1.15	-1.0227	1.32672	-0.661722	0.806078	0.347894	0.936784	0.31383	0.213502	-0.242919	0.492418	-0.00283509	0	0	-0.0906702	-0.282183	-0.152338	1.20907	0.191438	0	0	-0.272051	0.290077	0.0921512	0.366416	-0.482623	0.196263	1.12739	0.899812	0	0	0.305512	-0.344431	0.139591	1.0613	0.778992	0	0
1.16	-0.962949	1.32771	-0.719742	0.804212	0.336577	0.939155	0.297974	0.208389	-0.225442	0.510979	0.00994225	0	0	-0.0774734	-0.271529	-0.141423	1.22499	0.208125	0	0	-0.285125	0.277243	0.0928231	0.365607	-0.480181	0.192354	1.12949	0.900721	0	0	0.307352	-0.346762	0.137604	1.0657	0.77741	0	0
1.17	-0.909758	1.32789	-0.77199	0.8025	0.32539	0.941671	0.282195	0.20557	-0.203008	0.526759	0.0224358	0	0	-0.0637532	-0.261757	-0.132596	1.23413	0.225392	0	0	-0.297146	0.265985	0.0940131	0.365812	-0.478489	0.190276	1.12965	0.901944	0	0	0.308806	-0.348172	0.135616	1.06946	0.776676	0	0
1.18	-0.862609	1.32689	-0.818626	0.800997	0.314312	0.944387	0.264753	0.203928	-0.180869	0.537475	0.03126	0	0	-0.050099	-0.253216	-0.125482	1.2366	0.240699	0	0	-0.308551	0.256717	0.0956401	0.366711	-0.47756	0.189569	1.12814	0.902858	0	0	0.310301	-0.348788	0.134625	1.07166	0.777239	0	0
1.19	-0.817909	1.32528	-0.863059	0.799616	0.303312	0.947275	0.245044	0.201659	-0.161959	0.543653	0.039922	0	0	-0.0370527	-0.245174	-0.120102	1.23257	0.25327	0	0	-0.319479	0.24816	0.0972922	0.367855	-0.476589	0.189212	1.12541	0.903364	0	0	0.311994	-0.348899	0.134474	1.07214	0.778738	0	0
1.2	-0.77413	1.32418	-0.907195	0.798192	0.292357	0.95019	0.224176	0.197524	-0.146962	0.546398	0.0499298	0	0	-0.0242335	-0.236903	-0.116761	1.22265	0.262419	0	0	-0.329231	0.23896	0.0991365	0.368584	-0.47519	0.188482	1.12218	0.903956	0	0	0.313534	-0.348924	0.135078	1.07164	0.780673	0	0
1.21	-0.728867	1.32395	-0.953324	0.796717	0.281456	0.953053	0.202897	0.190623	-0.136477	0.547112	0.0606034	0	0	-0.0115597	-0.227779	-0.115398	1.20772	0.269908	0	0	-0.337902	0.22848	0.100931	0.368663	-0.473317	0.187072	1.11914	0.905284	0	0	0.314684	-0.349016	0.136051	1.07071	0.782941	0	0
1.22	-0.6837	1.3244	-1.00001	0.7952	0.270618	0.955828	0.181648	0.181707	-0.130449	0.546002	0.0712955	0	0	0.0011764	-0.218801	-0.117081	1.18798	0.275797	0	0	-0.345489	0.217263	0.102895	0.368251	-0.471204	0.185079	1.11647	0.906924	0	0	0.315403	-0.349075	0.137025	1.06929	0.784969	0	0
1.23	-0.640734	1.32458	-1.04575	0.793612	0.259887	0.958594	0.159582	0.172439	-0.127125	0.542161	0.0819143	0	0	0.0129639	-0.211217	-0.122343	1.16358	0.279327	0	0	-0.353136	0.206174	0.105815	0.367986	-0.469031	0.182806	1.11374	0.909152	0	0	0.315782	-0.349105	0.137652	1.06769	0.786533	0	0
